<?xml version="1.0" encoding="utf-8"?>
<!-- Generator: Adobe Illustrator 24.0.2, SVG Export Plug-In . SVG Version: 6.00 Build 0)  -->
<svg version="1.1" id="Camada_1" xmlns="http://www.w3.org/2000/svg" xmlns:xlink="http://www.w3.org/1999/xlink" x="0px" y="0px"
	 viewBox="0 0 500 125" style="enable-background:new 0 0 500 125;" xml:space="preserve">
<style type="text/css">
	.st0{fill:#4BD2D2;}
	.st1{fill:#FFFFFF;}
</style>
<g>
	<path class="st0" d="M35.5,75.82l-7.77,7.77l-9.08-9.08c-2.15-2.15-3.35-5.06-3.36-8.09l0-0.01l0,0c0.01-3.03,1.21-5.94,3.36-8.09
		l26.98-26.98c2.15-2.15,5.06-3.35,8.1-3.35h0c3.02,0.01,5.92,1.21,8.05,3.35l9.12,9.11l-7.77,7.76l-9.42-9.42L26.1,66.41
		L35.5,75.82z"/>
	<path class="st0" d="M89.16,58.69l3.2,3.2v9.1l-30.52,30.52c-2.14,2.14-5.04,3.34-8.06,3.35l-0.01,0c-3.04,0-5.95-1.2-8.1-3.35
		l-9.09-9.09l7.77-7.77l9.41,9.41l27.63-27.63L89.16,58.69z"/>
</g>
<g>
	<path class="st1" d="M105.4,31.33l9.11,9.11l-7.76,7.76l-9.43-9.43L61.93,74.17l-3.22-3.22l0-9.1l30.52-30.52
		c2.14-2.14,5.04-3.34,8.06-3.35l0.01,0C100.34,27.98,103.25,29.18,105.4,31.33z"/>
	<path class="st1" d="M115.58,57.05l7.77-7.77l9.06,9.06c2.14,2.14,3.35,5.05,3.36,8.08l0,0.01v0c0,3.03-1.21,5.94-3.36,8.09
		l-26.98,26.98c-2.15,2.15-5.06,3.35-8.1,3.35h0c-3.02-0.01-5.92-1.21-8.06-3.35l-9.12-9.11l7.77-7.77l9.42,9.42l27.62-27.62
		L115.58,57.05z"/>
</g>
<g id="Branding_4_">
	<g id="Logo_opt3_4_" transform="translate(-30.000000, -85.000000)">
		<g id="Satck-3_4_" transform="translate(30.000000, 85.000000)">
			<path id="Combined-Shape_4_" class="st1" d="M228.61,72.07c-0.02-2.9,0.01-5.82-0.26-8.7c-0.33-3.52-1.84-6.56-4.4-9.08
				c-4.52-4.44-14.93-4.23-18.96,0.65c-0.07,0.1-0.2,0.15-0.48,0.34V33.85h-1.84l-6.86,9.79v43.23h9.11v-1.3
				c0-6.15-0.02-12.31,0-18.47c0.02-4.3,2.34-6.88,6.56-7.38c3.62-0.43,6.68,1.5,7.58,4.86c0.23,0.87,0.33,1.8,0.34,2.71
				c0.03,6.12,0.01,12.23,0.01,18.35v1.2h9.2C228.62,81.86,228.64,76.96,228.61,72.07z M339.89,67.06
				c3.61-4.94,7.15-9.79,10.83-14.82c-3.37,0-6.44,0.02-9.5-0.02c-0.73-0.01-1.17,0.23-1.58,0.84c-3.94,5.64-7.9,11.25-11.87,16.87
				c-0.24,0.35-0.51,0.69-0.95,1.27V33.84h-1.77l-7.35,10.48v42.53h9.16V71.79c1.61,0,3.13,0.04,4.65-0.02
				c0.74-0.03,1.16,0.22,1.55,0.85c2.79,4.51,5.61,9.01,8.45,13.49c0.22,0.34,0.64,0.78,0.98,0.79c3.29,0.05,6.57,0.03,10.08,0.03
				C348.24,80.16,344.06,73.6,339.89,67.06z M265.77,55.8c-3.78-3.73-8.53-4.98-13.71-4.63c-7.07,0.5-12.36,3.8-15.19,10.44
				c-2.17,5.12-2.14,10.36-0.17,15.52c1.88,4.94,5.39,8.35,10.44,9.92c5.86,1.84,11.58,1.22,16.97-1.76
				c2.57-1.41,4.54-3.48,5.99-6.22c-2.66-1.29-5.23-2.51-7.79-3.74c-3.16,3.89-7.14,5.25-11.82,3.91c-3.07-0.87-4.72-3.28-5.62-6.46
				h26.06C271.65,66.28,270.49,60.47,265.77,55.8z M245.22,65.52c0.78-3.69,4.41-6.37,8.36-6.25c4.16,0.12,7.28,2.62,7.8,6.25
				H245.22z M174.46,79.4c-3.06,0.33-5.89-0.14-8.18-2.38c-4.06-3.97-3.85-11.64,0.39-15.36c4.22-3.69,11.06-2.47,14.91,2.73
				c2.66-1.35,5.33-2.71,8-4.07c-3.34-6.95-12.84-10.72-21.72-8.65c-8.21,1.91-14.17,9.03-13.81,18.94
				c0.31,8.33,6.17,15.32,14.57,16.97c8.7,1.7,18.01-2.21,20.93-8.9c-2.65-1.33-5.3-2.65-7.92-3.97
				C178.6,78.25,177.28,79.09,174.46,79.4z M303.51,74.71c-4.36,5.38-10.99,6.42-15.2,2.46c-4.15-3.93-4.05-11.64,0.2-15.45
				c4.17-3.74,10.92-2.56,14.99,2.66c2.63-1.34,5.28-2.68,8.03-4.08c-1.15-2.13-2.62-3.78-4.38-5.15c-4.3-3.36-9.27-4.39-14.58-3.93
				c-4.07,0.35-7.73,1.8-10.78,4.58c-4.7,4.32-6.3,9.81-5.71,15.98c0.41,4.4,2.19,8.24,5.49,11.28c5.81,5.33,15.41,6.49,22.63,2.78
				c3.14-1.62,5.6-3.93,7.35-7.13C308.8,77.34,306.15,76.02,303.51,74.71z"/>
		</g>
	</g>
</g>
<path class="st1" d="M370.07,52.2c0-2.15-0.04-4.1,0.01-6.05c0.07-3.03,1.48-4.57,4.33-4.87c3.41-0.35,5.24,0.83,6.1,3.8
	c0.11,0.4,0.69,0.97,1.07,0.98c2.7,0.09,5.39,0.04,8.39,0.04c-0.09-0.97-0.07-1.71-0.21-2.44c-1.18-6.05-5.12-9.69-11.9-10.74
	c-8.36-1.31-17.65,3.52-17.23,14.04c0.06,1.71,0.01,3.43,0.01,5.37h-5.54v8.47h5.58v26.15h9.42V60.87h12.07v26.08h9.08V52.2H370.07z
	"/>
<path class="st1" d="M454.57,67.76c-1.81-1.23-3.99-1.98-6.07-2.77c-1.77-0.67-3.66-1-5.44-1.62c-1.15-0.39-2.27-1.09-1.97-2.52
	c0.3-1.43,1.55-1.74,2.86-1.87c2.28-0.21,4.19,0.48,5.62,2.3c2.61-1.19,5.06-2.32,7.68-3.51c-0.97-2.35-2.5-3.95-4.55-4.97
	c-5.34-2.64-10.79-2.77-16.04,0.06c-7.08,3.81-7.32,12.81-0.51,16.95c1.5,0.9,3.2,1.51,4.86,2.11c1.88,0.68,3.87,1.1,5.74,1.81
	c1.53,0.59,2.86,1.56,2.74,3.45c-0.1,1.45-1.5,2.44-3.67,2.71c-0.24,0.03-0.48,0.03-0.71,0.04c-3.49,0.1-6.03-1.43-7.72-4.46
	c-2.4,1.1-4.69,2.16-7.02,3.16c-0.88,0.38-1.03,0.96-0.54,1.64c1.05,1.45,1.99,3.08,3.35,4.19c5.4,4.39,15.24,4.73,21.1,0.9
	C460.85,81.08,461.07,72.15,454.57,67.76z"/>
<path class="st1" d="M477.25,51.9V40.41c-3.56-0.52-3.56-0.52-5.35,2.23c-3.49,5.37-6.97,10.74-10.46,16.12
	c-0.32,0.5-0.62,1.02-1.04,1.72h7.64v26.47h9.32v-26.5h10.7V51.9H477.25z"/>
<path class="st1" d="M421.44,51.86c-1.96-0.85-4.3-1.06-6.46-1.07c-2.35-0.01-4.25,1.34-5.79,3.58c-0.07-1.21-0.13-2.07-0.19-3
	h-9.24v35.58h9.34c0-7.56-0.02-14.99,0.02-22.41c0.01-1.12,0.14-2.28,0.49-3.32c0.57-1.74,1.93-2.48,3.87-2.4
	c1.79,0.06,2.97,0.96,3.52,2.68c0.17,0.53,0.28,1.1,0.4,1.64h8.83C426.87,58.27,424.99,53.39,421.44,51.86z"/>
</svg>
